<svg xmlns="http://www.w3.org/2000/svg" width="25" height="24" viewBox="0 0 25 24" fill="none">
<path d="M21.2866 8.45C20.2366 3.83 16.2066 1.75 12.6666 1.75C12.6666 1.75 12.6666 1.75 12.6566 1.75C9.1266 1.75 5.0866 3.82 4.0366 8.44C2.8666 13.6 6.0266 17.97 8.8866 20.72C9.9466 21.74 11.3066 22.25 12.6666 22.25C14.0266 22.25 15.3866 21.74 16.4366 20.72C19.2966 17.97 22.4566 13.61 21.2866 8.45ZM12.6666 13.46C10.9266 13.46 9.5166 12.05 9.5166 10.31C9.5166 8.57 10.9266 7.16 12.6666 7.16C14.4066 7.16 15.8166 8.57 15.8166 10.31C15.8166 12.05 14.4066 13.46 12.6666 13.46Z" fill="white"></path>
</svg>