<svg width="800" height="600" xmlns="http://www.w3.org/2000/svg">
 <g>
  <title>Layer 1</title>
  <text font-weight="bold" xml:space="preserve" text-anchor="start" font-family="Noto Sans JP" font-size="53" id="svg_1" y="291" x="257" stroke-width="0" stroke="#000" fill="#00bf00">ChuotGreen</text>
  <path id="svg_6" d="m324.81452,227.55145c0,0 -1.28469,-2.10449 0.51387,-3.01948c1.79856,-0.91496 7.70808,-9.19564 12.33291,-9.33289c0,0 0.25693,-8.23489 3.59709,-6.86242c3.34019,1.3725 1.79856,2.47047 1.79856,2.47047c0,0 5.65259,-7.1369 7.19421,0.82349c0,0 1.5416,2.05874 7.45112,-3.84294c5.90952,-5.90168 26.19291,-7.30437 35.97102,3.56846c6.29491,6.99967 15.03072,17.43056 8.22192,26.9007c0,0 3.94144,20.80241 -28.9919,17.67851c0,0 -12.76016,-2.5812 -19.312,-2.30669c-6.55187,0.27448 -11.94752,2.60772 -8.73581,-0.54901c3.21168,-3.1567 11.81904,-3.1567 23.38115,-0.82349c11.56211,2.33324 30.06147,1.92148 30.06147,-12.07786c0,0 -2.82629,1.098 -4.11096,0.27451c0,0 0.64232,3.01945 -3.08323,2.74497c-3.72557,-0.27451 -7.19421,-1.50973 -11.04824,0.27448c0,0 -1.15621,0.82352 -1.54163,0c0,0 -1.92701,0 -1.28467,-0.82349c0,0 -1.09197,-0.48037 0,-1.37247c1.09197,-0.8921 8.73581,-0.75488 8.47888,-0.82349c-0.25693,-0.06861 0.12845,-0.8921 -0.51387,-0.82349c-0.64235,0.06861 -19.6556,1.30386 -24.66584,-0.27451c0,0 -0.25693,1.85287 -1.28467,1.098c0,0 -9.50664,1.02935 -11.56211,2.19596c-2.05549,1.16664 -1.34893,0.27451 -2.05549,0.54901c-0.70659,0.27448 -1.47739,1.57834 -2.31243,0.82349c0,0 -2.82629,0.75485 -2.05549,-0.54901c0,0 -0.89925,0.34315 -1.28467,-0.54898c0,0 -1.22045,-0.41173 0.51387,-1.92148c1.73432,-1.50973 8.73581,-1.44109 9.24968,-2.19596c0.51389,-0.75488 0.32117,-1.30386 -1.28467,-1.098c-1.60584,0.20587 -4.88179,-0.41173 -7.45115,-2.19596c-2.56936,-1.78423 -1.73789,-2.67145 -7.19419,-3.29399c-4.41072,-0.50323 -5.31,-1.18947 -6.42339,-1.64698c-1.11341,-0.45748 -2.56936,-3.01945 -2.56936,-3.01945z" stroke-width="0" stroke="#000" fill="#00bf00"/>
  <path id="svg_7" d="m425.16506,239.19983c0,0 -0.86717,-1.38976 0.34686,-1.994c1.21403,-0.60422 5.20296,-6.07259 8.32472,-6.16323c0,0 0.17343,-5.43814 2.42804,-4.53179c2.25463,0.90637 1.21403,1.63144 1.21403,1.63144c0,0 3.8155,-4.71305 4.8561,0.54381c0,0 1.04058,1.35954 5.02951,-2.53779c3.98893,-3.89734 17.68022,-4.82364 24.28045,2.35653c4.24906,4.62243 10.14574,11.51075 5.5498,17.76462c0,0 2.66047,13.73745 -19.56954,11.67449c0,0 -8.61311,-1.70456 -13.03561,-1.52329c-4.42251,0.18126 -8.06458,1.72208 -5.89668,-0.36256c2.16789,-2.08462 7.97786,-2.08462 15.78228,-0.54381c7.80443,1.54082 20.2915,1.26891 20.2915,-7.97595c0,0 -1.90775,0.72509 -2.7749,0.18128c0,0 0.43357,1.99398 -2.08118,1.81272c-2.51476,-0.18128 -4.8561,-0.99699 -7.45757,0.18126c0,0 -0.78044,0.54383 -1.0406,0c0,0 -1.30073,0 -0.86715,-0.54381c0,0 -0.73708,-0.31723 0,-0.90635c0.73708,-0.58912 5.89668,-0.4985 5.72325,-0.54381c-0.17343,-0.04531 0.08671,-0.58912 -0.34686,-0.54381c-0.43358,0.04531 -13.26754,0.86104 -16.64945,-0.18128c0,0 -0.17343,1.2236 -0.86715,0.72509c0,0 -6.41699,0.67976 -7.80443,1.45016c-1.38746,0.77042 -0.91053,0.18128 -1.38746,0.36256c-0.47695,0.18126 -0.99724,1.0423 -1.56089,0.54381c0,0 -1.90775,0.49849 -1.38746,-0.36256c0,0 -0.607,0.22661 -0.86715,-0.36254c0,0 -0.82381,-0.2719 0.34686,-1.26891c1.17067,-0.99699 5.89668,-0.95166 6.24354,-1.45016c0.34688,-0.4985 0.21679,-0.86104 -0.86715,-0.72509c-1.08394,0.13595 -3.29521,-0.2719 -5.02953,-1.45016c-1.73432,-1.17827 -1.17308,-1.76416 -4.85608,-2.17527c-2.97724,-0.33232 -3.58425,-0.7855 -4.33579,-1.08763c-0.75155,-0.30211 -1.73432,-1.99398 -1.73432,-1.99398z" stroke-width="0" stroke="#000" fill="#00bf00"/>
  <path id="svg_9" d="m369.43945,316.27319c0,0 -0.85111,-1.42946 0.34044,-2.05097c1.19155,-0.62148 5.1066,-6.24609 8.17055,-6.33932c0,0 0.17022,-5.59351 2.38307,-4.66126c2.21287,0.93226 1.19155,1.67805 1.19155,1.67805c0,0 3.74484,-4.8477 4.76617,0.55935c0,0 1.02131,1.39839 4.93637,-2.6103c3.91506,-4.00868 17.3528,-4.96145 23.8308,2.42386c4.17038,4.75449 9.95785,11.83961 5.44702,18.27216c0,0 2.6112,14.12993 -19.20713,12.00804c0,0 -8.45361,-1.75326 -12.7942,-1.56681c-4.34061,0.18644 -7.91523,1.77128 -5.78748,-0.37291c2.12774,-2.14417 7.83012,-2.14417 15.49001,-0.55935c7.6599,1.58484 19.91573,1.30516 19.91573,-8.20382c0,0 -1.87242,0.74581 -2.72351,0.18646c0,0 0.42554,2.05095 -2.04264,1.86451c-2.46819,-0.18646 -4.76617,-1.02547 -7.31946,0.18644c0,0 -0.76599,0.55937 -1.02133,0c0,0 -1.27665,0 -0.85109,-0.55935c0,0 -0.72343,-0.32629 0,-0.93224c0.72343,-0.60596 5.78748,-0.51275 5.61726,-0.55935c-0.17022,-0.0466 0.0851,-0.60596 -0.34044,-0.55935c-0.42555,0.0466 -13.02184,0.88564 -16.34112,-0.18646c0,0 -0.17022,1.25855 -0.85109,0.74581c0,0 -6.29815,0.69918 -7.6599,1.4916c-1.36176,0.79243 -0.89367,0.18646 -1.36176,0.37291c-0.46811,0.18644 -0.97877,1.07208 -1.53198,0.55935c0,0 -1.87242,0.51273 -1.36176,-0.37291c0,0 -0.59576,0.23308 -0.85109,-0.37289c0,0 -0.80855,-0.27967 0.34044,-1.30516c1.14899,-1.02547 5.78748,-0.97885 6.12791,-1.4916c0.34045,-0.51275 0.21278,-0.88564 -0.85109,-0.74581c-1.06387,0.13983 -3.23418,-0.27967 -4.93639,-1.4916c-1.7022,-1.21193 -1.15135,-1.81457 -4.76615,-2.23742c-2.9221,-0.34182 -3.51788,-0.80794 -4.25549,-1.1187c-0.73764,-0.31074 -1.7022,-2.05095 -1.7022,-2.05095z" stroke-width="0" stroke="#000" fill="#00bf00"/>
 </g>
</svg>